<svg width="236" height="95" viewBox="0 0 236 95" fill="none" xmlns="http://www.w3.org/2000/svg">
<path d="M164.317 47.5005C164.317 73.1817 143.499 94.0005 117.817 94.0005C92.1361 94.0005 71.3174 73.1817 71.3174 47.5005C71.3174 21.8192 92.1361 1.00049 117.817 1.00049C143.499 1.00049 164.317 21.8192 164.317 47.5005ZM91.8172 47.5005C91.8172 61.86 103.458 73.5007 117.817 73.5007C132.177 73.5007 143.818 61.86 143.818 47.5005C143.818 33.141 132.177 21.5003 117.817 21.5003C103.458 21.5003 91.8172 33.141 91.8172 47.5005Z" fill="black" fill-opacity="0.05"/>
<g clip-path="url(#clip0_21_708)">
<path d="M105.25 84.261C105.834 83.6269 106.111 83.4814 106.405 82.966C106.9 82.1005 106.627 81.6168 106.832 80.5879C107.286 78.3249 109.151 77.9376 108.938 76.3618C108.869 75.8544 108.638 75.6233 108.595 74.7899C108.558 74.0839 108.69 73.6252 108.752 73.2392C108.859 72.5654 108.834 71.5611 108.187 70.1807C106.256 71.8843 104.508 72.8964 103.261 73.5073C101.305 74.4666 100.64 74.4528 99.5565 75.3943C98.0836 76.675 97.5608 78.6267 97.1167 80.4675C96.4224 83.351 95.7506 85.1078 96.6149 86.8908C97.149 87.9907 98.0063 88.6579 98.5867 89.0259C98.657 88.8206 99.378 86.794 101.374 86.2368C102.436 85.9399 103.347 86.2033 103.742 86.3465C104.283 85.3895 104.835 84.711 105.25 84.261Z" fill="#DDA54A"/>
<path d="M108.938 76.3617C108.869 75.8544 108.638 75.6233 108.595 74.7899C108.558 74.0839 108.69 73.6252 108.752 73.2392C108.859 72.5654 108.834 71.5611 108.187 70.1807C106.256 71.8843 104.508 72.8964 103.261 73.5073C101.305 74.4666 100.64 74.4527 99.5565 75.3943C99.052 75.834 98.6599 76.3542 98.3422 76.9204C97.9867 77.7956 97.6522 78.68 97.3416 79.5728C97.2629 79.8718 97.1884 80.171 97.1167 80.4675C96.8595 81.5367 96.6052 82.4507 96.4309 83.2689C96.414 83.605 96.4267 83.9915 96.5026 84.4112C96.7837 85.9652 97.745 86.9751 98.2186 87.4081C98.2045 87.0814 98.1567 85.3361 99.4694 83.8939C100.615 82.6359 102.047 82.43 102.425 82.3878C102.512 82.2175 102.703 81.9008 103.069 81.6542C103.635 81.2718 104.224 81.3236 104.395 81.345C104.362 81.2034 104.23 80.5784 104.584 79.9549C105.046 79.1437 105.931 79.0375 106.024 79.0281C106.028 78.4273 106.002 77.9414 105.975 77.6061C105.93 77.0188 105.931 76.7873 106.017 76.4761C106.118 76.1118 106.444 75.7714 106.811 75.8232C106.984 76.1546 107.05 76.5425 106.997 76.9138C107.296 76.4967 107.761 76.2068 108.262 76.125C108.231 76.8155 108.193 77.5057 108.153 78.1957C108.641 77.6283 109.043 77.1397 108.938 76.3617Z" fill="#C9913F"/>
<path d="M94.6376 55.8474C94.5406 55.5547 94.216 55.4225 93.9279 55.3265C93.1971 55.0824 92.4395 54.8351 91.6736 54.9157C90.909 54.9965 90.1305 55.4984 89.9703 56.2656C89.5781 56.0955 89.1481 56.0331 88.7236 56.0628C88.1643 56.6989 87.4447 57.1986 86.7575 57.0293C86.7181 57.0744 86.6802 57.1196 86.6436 57.1675C86.4848 57.3805 86.3527 57.6197 86.1503 57.7894C85.8257 58.0609 85.3802 58.1084 84.9825 58.2468C84.2179 58.5125 83.6192 59.1222 82.9039 59.5025C82.1871 59.8828 81.171 59.9569 80.6904 59.2954C80.5526 60.0617 80.4149 60.8281 80.2786 61.5944C80.2195 61.9252 80.1563 62.2646 79.9834 62.5508C79.351 63.5945 77.278 64.2921 77.8908 65.9019C78.3841 67.1974 80.2364 66.8817 80.9897 66.0208C81.2441 65.7297 81.4268 65.3759 81.698 65.1016C82.1182 64.6792 82.7043 64.4886 83.258 64.2832C86.4469 63.1018 89.231 61.027 91.9659 58.9791C92.8851 58.2908 93.8239 57.5807 94.4464 56.6064C94.5912 56.3796 94.7219 56.1039 94.6376 55.8474Z" fill="#DDA54A"/>
<path d="M108.187 70.1808C101.972 68.457 97.4006 62.6664 97.4006 55.785C97.4006 55.7359 97.402 55.6876 97.4034 55.6386C96.1892 55.6956 95.0873 55.1338 94.3439 54.1797C94.1583 54.4152 93.9855 54.6603 93.7072 54.8167C93.2462 55.0765 92.7614 55.0085 92.2653 54.9336C91.571 54.8286 91.4066 55.5573 91.0383 56.0264C90.9062 56.1948 90.753 56.3584 90.5858 56.5098C89.5964 57.8046 87.7258 58.3191 86.3569 57.1917C85.4729 57.8351 84.4063 57.9858 83.5771 57.2356C83.3199 57.7589 82.9811 58.3449 82.5637 58.8232C82.5651 59.5378 82.5089 60.2049 82.1801 60.8674C81.5153 62.2121 80.1563 62.6568 78.7917 62.8125C78.6357 63.7617 78.3433 64.6962 77.5872 65.3316C77.5001 65.4041 77.4101 65.4698 77.3174 65.532C78.6413 70.362 80.6988 73.803 81.7177 75.3661C86.4258 82.585 92.5238 85.8847 96.1568 87.7936C96.8848 88.1756 97.6943 88.5975 98.5868 89.0262C98.6781 88.631 98.8074 88.2356 98.9466 87.8593C98.3029 87.2341 97.8616 86.3112 97.9192 85.4613C97.8855 85.3169 97.8644 85.1674 97.8588 85.0107C97.7969 82.9517 99.9697 81.5112 101.847 81.5009C102.11 80.8433 102.581 80.4766 103.145 80.2362C103.258 80.1338 103.375 80.0351 103.49 79.941C103.91 79.5994 104.425 79.2109 104.973 79.0569C103.925 78.0814 104.073 76.7448 104.827 75.7073C105.059 75.0276 105.574 74.4857 106.353 74.3926C106.728 73.7557 107.264 73.321 108.042 73.0815C107.812 72.1417 107.847 71.0916 108.187 70.1808Z" fill="#F7C161"/>
<path d="M107.933 71.239C107.874 71.2235 107.824 71.2099 107.786 71.1994C107.164 71.0262 104.543 70.2503 101.955 67.9406C98.1004 64.4995 97.1349 60.168 96.8777 58.9312C96.6065 57.6268 96.5249 56.4618 96.5165 55.5671C95.6606 55.3879 94.9017 54.8949 94.3438 54.1797C94.1582 54.4152 93.9854 54.6603 93.7071 54.8167C93.2461 55.0765 92.7613 55.0085 92.2652 54.9336C91.5709 54.8286 91.4065 55.5573 91.0382 56.0264C90.9061 56.1948 90.7529 56.3584 90.5857 56.5098C89.5963 57.8046 87.7257 58.3191 86.3568 57.1917C85.4728 57.8351 84.4062 57.9858 83.577 57.2356C83.3198 57.7589 82.981 58.3449 82.5636 58.8232C82.565 59.5378 82.5088 60.2049 82.18 60.8674C81.5152 62.2121 80.1562 62.6568 78.7916 62.8125C78.6356 63.7617 78.3432 64.6962 77.5871 65.3316C77.5295 65.379 77.4719 65.4237 77.4128 65.4665C77.7979 66.2836 78.273 67.065 78.859 67.7726C79.476 68.5173 80.1885 69.1863 80.7057 70.0063C81.5419 71.3311 81.8005 72.9362 82.3261 74.417C83.3198 77.2138 85.3407 79.6175 87.9 81.0473C89.2534 81.8031 90.7319 82.2882 92.1527 82.903C94.1737 83.778 96.0668 84.9125 97.9556 86.0613C97.9177 85.8607 97.905 85.6593 97.9191 85.4616C97.8854 85.317 97.8643 85.1675 97.8587 85.0106C97.7968 82.9517 99.9696 81.5112 101.847 81.5009C102.11 80.8433 102.581 80.4766 103.144 80.2362C103.258 80.1338 103.375 80.0351 103.49 79.941C103.91 79.5993 104.425 79.2109 104.973 79.0569C103.924 78.0814 104.073 76.7448 104.827 75.7073C105.059 75.0276 105.574 74.4857 106.353 74.3926C106.728 73.7557 107.264 73.321 108.042 73.0815C107.897 72.4902 107.857 71.8558 107.933 71.239Z" fill="#724726"/>
<path d="M82.0915 61.0347C82.0915 61.0336 82.0915 61.0324 82.0901 61.0313C82.121 60.9776 82.1519 60.9244 82.18 60.8674C82.1519 60.9249 82.1224 60.9806 82.0915 61.0347Z" fill="#E0AE5C"/>
<path d="M92.9454 55.0008C92.8976 55.0008 92.8513 54.9994 92.8035 54.9967C92.8021 54.9963 92.7993 54.9959 92.7979 54.9953C92.8442 54.9978 92.892 54.9994 92.9398 54.9994C93.034 54.9994 93.1267 54.9936 93.2195 54.98V54.9818C93.1295 54.9952 93.0368 55.0008 92.9454 55.0008Z" fill="white"/>
<path d="M92.8037 54.9969C92.6266 54.9871 92.4467 54.9607 92.2654 54.9333C92.4453 54.9603 92.6224 54.9859 92.798 54.9955C92.7994 54.9961 92.8023 54.9965 92.8037 54.9969Z" fill="#E0AE5C"/>
<path d="M94.6882 75.5674C91.5499 75.5673 88.5873 73.7329 86.5874 71.2562C84.5341 68.7138 83.3592 65.5574 82.4583 62.395C82.329 61.9437 82.2068 61.4902 82.0916 61.0347C82.1225 60.9805 82.152 60.9248 82.1801 60.8674C82.5019 60.2179 82.5637 59.5638 82.5637 58.865V58.8231C82.9812 58.3448 83.3199 57.7588 83.5771 57.2356C83.9636 57.5847 84.4006 57.7386 84.8475 57.7386C85.0429 57.7386 85.2397 57.7093 85.435 57.6537C85.3324 57.6832 85.2284 57.7053 85.1244 57.7196C85.1778 59.0281 85.2692 60.3368 85.5756 61.6061C85.9522 63.1634 86.6802 64.6772 87.8776 65.717C88.2318 66.0237 88.5156 66.1579 88.7433 66.1579C90.181 66.1579 89.335 60.8152 88.9991 59.7879C88.7841 59.1288 88.6548 58.451 88.5241 57.7757C88.3723 57.8007 88.2205 57.8134 88.0659 57.8134C87.4757 57.8134 86.8797 57.6218 86.3569 57.1916C86.8797 57.6218 87.4757 57.8128 88.0659 57.8128C89.0258 57.8128 89.9745 57.3105 90.5858 56.5098C90.7531 56.3583 90.9062 56.1948 91.0384 56.0263C91.3827 55.588 91.5485 54.9233 92.136 54.9233C92.1767 54.9233 92.2203 54.9266 92.2653 54.9335C92.4958 54.9682 92.722 55.0013 92.9455 55.0013C93.0368 55.0013 93.1296 54.9955 93.2195 54.9819C93.2181 55.0505 93.2153 55.1193 93.2139 55.1879C93.1113 59.8184 94.4675 64.4396 96.8623 68.3757C97.3978 69.2563 97.9909 70.1167 98.3212 71.0962C98.6514 72.0756 98.6866 73.2217 98.1342 74.0914C97.4723 75.1329 96.154 75.5259 94.9369 75.5635C94.854 75.5661 94.7711 75.5674 94.6882 75.5674Z" fill="#805A3C"/>
<path d="M97.9191 85.4614C97.8854 85.3169 97.8643 85.1672 97.8587 85.0105C97.846 84.5669 97.936 84.1521 98.1046 83.774C95.7969 82.7599 93.3768 81.9828 91.0846 80.9234C87.914 79.4586 84.8264 77.2474 83.539 73.9503C82.7337 71.886 82.7042 69.5613 81.8047 67.5376C81.1906 66.1538 80.2026 64.985 79.3495 63.7399C79.1527 63.4531 78.9644 63.1589 78.7831 62.8594C78.6257 63.7922 78.3306 64.7065 77.5871 65.3315C77.5295 65.3789 77.4719 65.4236 77.4128 65.4665C77.7979 66.2835 78.273 67.0647 78.859 67.7725C79.476 68.5172 80.1885 69.1861 80.7057 70.0062C81.5419 71.3309 81.8005 72.9361 82.3261 74.4168C83.3198 77.2136 85.3407 79.6175 87.9 81.0471C89.2534 81.803 90.7319 82.288 92.1527 82.9028C94.1737 83.7779 96.0668 84.9124 97.9556 86.0613C97.9177 85.8605 97.905 85.6591 97.9191 85.4614Z" fill="#593319"/>
<path d="M85.4351 57.6537C85.7513 57.563 86.0632 57.4031 86.3556 57.1904C86.357 57.1909 86.357 57.1911 86.357 57.1916C86.0647 57.4046 85.7527 57.5636 85.4351 57.6537Z" fill="white"/>
<path d="M88.7432 66.158C88.5155 66.158 88.2316 66.0237 87.8775 65.7171C86.6801 64.6773 85.9521 63.1635 85.5754 61.6061C85.2691 60.3368 85.1777 59.0282 85.1243 57.7196C85.2283 57.7053 85.3323 57.6833 85.4349 57.6538C85.7525 57.5637 86.0645 57.4047 86.3568 57.1917C86.8796 57.6218 87.4755 57.8135 88.0658 57.8135C88.2204 57.8135 88.3722 57.8007 88.524 57.7758C88.6547 58.451 88.784 59.1289 88.999 59.7879C89.3349 60.8153 90.1809 66.158 88.7432 66.158Z" fill="#8D6B50"/>
<path d="M85.088 56.6418C85.0767 56.1757 85.095 55.698 85.3142 55.2942C85.6051 54.7608 85.9986 54.5466 86.4006 54.5466C87.1244 54.5466 87.8791 55.2402 88.118 56.0154C88.1278 56.0477 88.1363 56.0806 88.1447 56.1131C87.7667 55.9553 87.4125 55.686 87.1061 55.4687C87.0274 55.4132 86.9431 55.3892 86.8574 55.3892C86.6676 55.3892 86.4793 55.5092 86.3711 55.6652C86.0296 56.1561 85.5588 56.5593 85.088 56.6418Z" fill="white"/>
<path d="M96.8777 58.9311C96.6065 57.6267 96.5249 56.4617 96.5165 55.567C96.071 55.4738 95.6522 55.2955 95.2741 55.0449C95.1772 56.4721 94.9425 57.9127 95.2671 59.2984C95.5833 60.6512 96.4069 61.8179 97.2712 62.8939C98.2157 64.07 99.2346 65.183 100.315 66.2312C97.8095 63.1886 97.0941 59.9693 96.8777 58.9311Z" fill="#593319"/>
<path d="M83.2187 61.5956C83.1513 61.4787 83.0065 61.3777 82.8688 61.3908C82.7016 61.4065 82.575 61.4677 82.4247 61.5355C82.4345 61.5315 82.4795 61.5124 82.4289 61.5343C82.3825 61.5548 82.3319 61.571 82.2855 61.5948C82.2265 61.625 82.1717 61.6665 82.1169 61.7021C81.9187 61.8281 81.7304 61.9681 81.5407 62.1049C81.1317 62.3986 80.7354 62.7062 80.3461 63.0248C80.2533 63.1004 80.162 63.1693 80.0875 63.2641C79.947 63.4445 79.8781 63.6596 79.9287 63.8889C79.975 64.0916 80.1704 64.2257 80.3686 64.2294C80.3362 64.2287 80.2196 64.2124 80.3742 64.2334C80.4304 64.2412 80.4389 64.2396 80.4838 64.2385C80.6131 64.235 80.7452 64.1846 80.8534 64.112C81.0713 63.9653 81.268 63.7663 81.4718 63.598C81.6531 63.4483 81.833 63.2972 82.0129 63.1459C82.2181 62.9735 82.4261 62.8045 82.6341 62.6351C82.7296 62.5572 82.8336 62.479 82.9166 62.3882C83.0206 62.2763 83.1555 62.1524 83.2187 62.013C83.2806 61.8751 83.2974 61.7329 83.2187 61.5956Z" fill="#FFB6DC"/>
<path d="M94.3325 62.2934C94.2355 61.9363 93.9151 61.8381 93.6045 61.7513C93.3797 61.6879 93.1506 61.6342 92.9229 61.5764C92.4479 61.4552 91.97 61.3727 91.4866 61.2975C91.3165 61.2712 91.1493 61.3261 91.0804 61.5006C91.0214 61.6488 91.0636 61.8646 91.221 61.9383C91.6637 62.1455 92.105 62.349 92.5645 62.5129C92.7866 62.5918 93.0086 62.672 93.2307 62.7501C93.3319 62.7856 93.4345 62.8199 93.5371 62.8509L93.5666 62.8618C93.5848 62.87 93.6073 62.8794 93.6354 62.8915C93.7113 62.9157 93.7872 62.9266 93.8645 62.9187C94.1737 62.8878 94.4225 62.6276 94.3325 62.2934Z" fill="#FFB6DC"/>
<path d="M90.2921 69.8525C90.3047 69.3818 90.3357 68.9057 90.3778 68.4371C90.3975 68.2303 90.2063 68.0441 90.018 68.0214C89.8044 67.9955 89.6344 68.121 89.5627 68.3245C89.4854 68.5473 89.4039 68.7743 89.3491 69.0047C89.2858 69.272 89.2563 69.553 89.2226 69.825C89.1621 70.3102 89.1593 70.7958 89.186 71.2837C89.2029 71.5836 89.4334 71.8737 89.751 71.8592C90.0377 71.846 90.3399 71.6051 90.316 71.2837C90.2809 70.8079 90.278 70.3292 90.2921 69.8525Z" fill="#FFB6DC"/>
<path d="M98.8554 71.5301C98.698 71.3223 98.3719 71.2263 98.1428 71.3853C97.658 71.7236 97.2729 72.2485 96.9763 72.759C96.6882 73.2555 96.5378 73.8186 96.438 74.3598C96.4113 74.5027 96.4648 74.6478 96.6039 74.705C96.722 74.7537 96.9061 74.721 96.9623 74.5852C97.0621 74.3474 97.1913 74.1336 97.3249 73.9141C97.3895 73.807 97.4584 73.7024 97.5315 73.6003C97.5511 73.5722 97.5722 73.5444 97.5919 73.5165L97.5975 73.5095C97.6284 73.4724 97.658 73.4363 97.6861 73.3982C97.6861 73.4 97.7184 73.3578 97.7353 73.3338C97.8856 73.1423 98.0459 72.9604 98.2201 72.7915C98.4099 72.6076 98.6207 72.4497 98.8118 72.2687C99.0142 72.0777 99.017 71.7433 98.8554 71.5301Z" fill="#FFB6DC"/>
<path d="M104.787 72.0597C104.463 71.9546 104.139 71.8463 103.812 71.7516C103.65 71.7049 103.489 71.6641 103.326 71.626C103.108 71.5751 102.875 71.538 102.655 71.6075C102.429 71.6793 102.249 71.9907 102.414 72.215C102.671 72.5681 103.102 72.7057 103.493 72.8541C103.819 72.978 104.149 73.0888 104.478 73.2021C104.766 73.3013 105.126 73.0881 105.193 72.7884C105.265 72.4651 105.098 72.1603 104.787 72.0597Z" fill="#C7FC72"/>
<path d="M103.378 77.722C103.365 77.506 103.35 77.2877 103.322 77.0733C103.292 76.8481 103.251 76.6244 103.246 76.3975C103.24 76.2132 103.095 76.0564 102.911 76.0564C102.717 76.0564 102.591 76.2131 102.577 76.3975C102.561 76.5948 102.511 76.7865 102.475 76.983C102.433 77.2268 102.404 77.4759 102.377 77.722C102.328 78.1622 102.3 78.6046 102.274 79.0467C102.256 79.3501 102.549 79.6402 102.842 79.6267C103.149 79.6127 103.414 79.3718 103.411 79.0467C103.409 78.6051 103.403 78.1629 103.378 77.722Z" fill="#9FE4FF"/>
<path d="M94.1556 80.7552C93.9659 80.4442 93.5527 80.4886 93.2379 80.5213C92.8598 80.5604 92.4846 80.6376 92.1122 80.7174C91.4193 80.8662 90.7306 81.0465 90.0476 81.2325C89.7454 81.3146 89.5304 81.6707 89.6302 81.9821C89.7314 82.3015 90.0406 82.4919 90.3652 82.4078C91.0749 82.2239 91.7861 82.0303 92.4846 81.8085C92.8458 81.6937 93.2027 81.5682 93.5485 81.4134C93.7017 81.3449 93.8478 81.2561 93.9827 81.1545C94.0699 81.0885 94.2329 80.8825 94.1556 80.7552Z" fill="#C7FC72"/>
<path d="M128.785 83.302C128.598 83.3516 128.274 83.2179 127.68 82.396C127.174 82.8726 126.858 83.5548 126.82 84.2567C126.816 84.3444 126.816 84.4368 126.856 84.5143C126.949 84.6897 127.184 84.7019 127.371 84.7627C128.043 84.9824 128.314 86.0241 129.021 86.02C129.203 85.2912 129.286 84.5368 129.268 83.7849C129.244 83.5894 129.185 83.3468 129.025 83.2834C128.928 83.2456 128.838 83.2877 128.785 83.302Z" fill="#F7C161"/>
<path d="M82.0324 53.96C81.6333 53.9724 81.3466 54.5285 81.5911 54.9002C81.7092 55.0768 81.9298 55.1714 82.135 55.144C82.0226 54.7736 82.0015 54.3633 82.0324 53.96Z" fill="#DDA54A"/>
<path d="M108.909 84.094C109.331 84.2354 109.76 84.35 110.194 84.4371C110.45 84.4882 110.706 84.5298 110.964 84.561C110.991 84.5643 111.019 84.567 111.043 84.5541C111.065 84.5415 111.078 84.5166 111.091 84.4929C111.225 84.2289 111.476 83.9638 111.269 83.7103C111.131 83.5404 110.937 83.525 110.741 83.5249C110.104 83.5243 109.442 83.7451 108.909 84.094Z" fill="#F7C161"/>
<path d="M96.5082 49.5859C96.289 49.9664 96.1203 50.3762 96.0051 50.8013C95.9714 50.9262 95.9447 51.0646 95.9995 51.1811C96.0852 51.3596 96.3171 51.3958 96.5124 51.3908C96.7204 51.3853 96.9284 51.3594 97.1308 51.3134C97.2039 51.297 97.2784 51.2765 97.3332 51.2263C97.381 51.1838 97.4091 51.1245 97.4358 51.0666C97.5215 50.8823 97.6087 50.6979 97.6944 50.5134C97.9544 49.9585 97.4625 50.0931 97.1589 49.9127C96.9748 49.8027 96.7289 49.2026 96.5082 49.5859Z" fill="#F7C161"/>
<path d="M112.98 73.0161C113.1 72.8025 113.162 72.5826 113.207 72.3607C112.978 72.3199 112.746 72.2898 112.527 72.2599C112.427 72.2461 112.323 72.2341 112.226 72.2606C111.959 72.3331 111.843 72.6511 111.805 72.9298C111.739 73.4124 111.786 73.9102 111.938 74.3717C112.308 73.9366 112.7 73.5126 112.98 73.0161Z" fill="#DDA54A"/>
<path d="M118.035 77.4569C117.706 77.6646 117.388 77.8977 117.069 78.1267C117.175 78.2383 117.26 78.3695 117.314 78.5146C117.364 78.6521 117.395 78.8087 117.506 78.9031C117.696 79.0649 117.986 78.9459 118.182 78.7946C118.489 78.5602 118.754 78.2308 118.791 77.8426C118.813 77.5954 118.742 77.3528 118.655 77.1184C118.444 77.2241 118.234 77.332 118.035 77.4569Z" fill="#DDA54A"/>
<path d="M103.684 89.0053C103.527 88.9176 103.386 88.9149 103.216 88.9239C103.119 88.9292 103.022 88.9328 102.925 88.9347C102.726 88.9388 102.525 88.9358 102.324 88.9276C102.131 88.9198 101.939 88.9039 101.746 88.8847C101.665 88.8765 101.582 88.8751 101.5 88.8702L101.492 88.8672C101.4 88.8421 101.319 88.8471 101.227 88.866C101.085 88.8954 100.986 89.0235 100.944 89.155C100.883 89.3408 100.963 89.5333 101.097 89.6609C101.204 89.7626 101.334 89.8127 101.472 89.8517C101.707 89.9182 101.958 89.9395 102.2 89.9669C102.414 89.9911 102.627 90.0064 102.842 90.0127C103.099 90.0202 103.468 90.0684 103.684 89.9149C103.837 89.8069 103.94 89.6569 103.94 89.4602C103.94 89.279 103.843 89.0931 103.684 89.0053Z" fill="#FFB6DC"/>
<path d="M103.078 48.8129C102.972 48.7051 102.821 48.6696 102.678 48.7053C102.442 48.7643 102.263 48.9269 102.085 49.0865C101.947 49.2099 101.829 49.3652 101.712 49.509C101.452 49.8273 101.218 50.1658 101.001 50.5157C100.84 50.7749 100.939 51.1722 101.207 51.3163C101.489 51.4682 101.822 51.3839 101.992 51.1065C102.237 50.7084 102.504 50.3219 102.783 49.9492C102.951 49.7326 103.135 49.4895 103.184 49.22C103.211 49.0693 103.188 48.9254 103.078 48.8129Z" fill="#FFB6DC"/>
<path d="M110.423 77.1588C110.371 76.8728 110.1 76.6141 109.796 76.6777C109.749 76.6876 109.702 76.6987 109.656 76.7119L109.629 76.7228C109.248 76.7765 108.867 76.8301 108.487 76.8838C108.29 76.9116 108.093 76.9423 107.896 76.9719C107.798 76.9867 107.699 77.0007 107.601 77.0205C107.476 77.0458 107.338 77.061 107.22 77.1137C107.052 77.1898 106.925 77.3875 106.96 77.5803C106.997 77.7832 107.142 77.9159 107.337 77.9551C107.454 77.9785 107.591 77.958 107.712 77.9548C107.812 77.9523 107.91 77.9448 108.01 77.9372C108.215 77.9216 108.42 77.9071 108.626 77.8897C108.999 77.858 109.372 77.8262 109.746 77.7944C109.813 77.8007 109.881 77.7996 109.952 77.7983C110.084 77.7957 110.242 77.6801 110.318 77.5783C110.399 77.4674 110.448 77.2978 110.423 77.1588Z" fill="#C7FC72"/>
<path d="M87.9648 47.3683C87.9297 47.106 87.6921 46.8499 87.4138 46.8722C87.1553 46.8927 86.8981 46.957 86.6451 47.0057C86.4216 47.0487 86.1982 47.0937 85.9761 47.1417C85.5376 47.2366 85.0176 47.313 84.648 47.5929C84.5314 47.6821 84.4541 47.7996 84.478 47.9567C84.4991 48.1017 84.5946 48.2171 84.7338 48.2604C85.2046 48.4059 85.74 48.2863 86.2136 48.2184C86.4399 48.186 86.6648 48.1518 86.8896 48.1143C87.1117 48.0772 87.3464 48.0574 87.5628 47.9961C87.8327 47.9196 88.0013 47.6472 87.9648 47.3683Z" fill="#C7FC72"/>
<path d="M123.703 64.9915C123.652 65.0264 123.6 65.0731 123.548 65.128C124.39 65.8224 125.152 66.6054 125.897 67.4067C126.107 67.3248 126.318 67.2426 126.529 67.1646L126.522 67.1358C126.421 66.8148 126.183 66.5405 125.884 66.3959C125.613 66.2644 125.232 66.2283 125.029 65.9759C124.826 65.723 124.968 65.3349 124.768 65.0981C124.41 64.6741 124.164 64.6688 123.703 64.9915Z" fill="#F7C161"/>
<path d="M118.241 83.6322C118.123 83.5209 117.912 83.4649 117.77 83.5702L117.662 83.6499L117.652 83.6542C117.627 83.6608 117.606 83.6717 117.585 83.6866C117.567 83.6984 117.548 83.7127 117.53 83.7257C117.425 83.8016 117.319 83.8751 117.218 83.9569C117.065 84.0802 116.937 84.2458 116.802 84.3899C116.669 84.532 116.537 84.6741 116.403 84.8161C116.239 84.9931 116.066 85.1643 115.922 85.3614C115.845 85.468 115.828 85.6758 115.866 85.7982C115.904 85.9176 115.967 86.0155 116.066 86.0927C116.293 86.2716 116.586 86.2368 116.797 86.0483C116.938 85.9206 117.058 85.7562 117.184 85.6114C117.315 85.4597 117.447 85.3083 117.579 85.1567C117.728 84.9854 117.891 84.8188 118.019 84.6309C118.071 84.5542 118.113 84.4712 118.158 84.3908C118.196 84.3269 118.229 84.2627 118.253 84.1933L118.258 84.1874C118.275 84.1669 118.289 84.1354 118.303 84.1128C118.389 83.9677 118.366 83.7492 118.241 83.6322Z" fill="#9FE4FF"/>
</g>
<path d="M36.0726 90.0005V72.3357H0.317383V53.8973L42.7036 0.000488281H56.8757V53.7684H68.3174V72.3357H56.8757V90.0005H36.0726ZM20.8604 53.7684H38.543V30.9461L20.8604 53.7684Z" fill="#F2EBE4"/>
<path d="M203.073 90.0005V72.3357H167.317V53.8973L209.704 0.000488281H223.876V53.7684H235.317V72.3357H223.876V90.0005H203.073ZM187.86 53.7684H205.543V30.9461L187.86 53.7684Z" fill="#F2EBE4"/>
<defs>
<clipPath id="clip0_21_708">
<rect width="52" height="53" fill="white" transform="translate(77.3174 42.0005)"/>
</clipPath>
</defs>
</svg>
